<svg xmlns="http://www.w3.org/2000/svg" xmlns:xlink="http://www.w3.org/1999/xlink" width="500" zoomAndPan="magnify" viewBox="0 0 375 374.999991" height="500" preserveAspectRatio="xMidYMid meet" version="1.0"><path stroke-linecap="butt" transform="matrix(0.75, 0, 0, 0.75, 127.124996, 59.253512)" fill="none" stroke-linejoin="miter" d="M 0.0000051305 9.500526 L 136.098972 9.500526 " stroke="#ffffff" stroke-width="19" stroke-opacity="1" stroke-miterlimit="4"/><path stroke-linecap="butt" transform="matrix(0, -0.75, 0.75, 0, 133.647829, 167.513485)" fill="none" stroke-linejoin="miter" d="M 0.002355 9.500813 L 141.851323 9.500813 " stroke="#ffffff" stroke-width="19" stroke-opacity="1" stroke-miterlimit="4"/><path stroke-linecap="butt" transform="matrix(0.749991, 0.00365885, -0.00365885, 0.749991, 127.159758, 159.82001)" fill="none" stroke-linejoin="miter" d="M 0.0000042957 9.500518 L 156.001868 9.499884 " stroke="#ffffff" stroke-width="19" stroke-opacity="1" stroke-miterlimit="4"/><path stroke-linecap="butt" transform="matrix(0.749999, 0.000961366, -0.000961366, 0.749999, 153.159136, 106.340911)" fill="none" stroke-linejoin="miter" d="M -0.00208923 9.498588 L 110.800098 9.502392 " stroke="#ffffff" stroke-width="19" stroke-opacity="1" stroke-miterlimit="4"/><path stroke-linecap="butt" transform="matrix(0, 0.75, -0.75, 0, 236.322997, 113.181614)" fill="none" stroke-linejoin="miter" d="M -0.00256889 9.498372 L 70.924519 9.498372 " stroke="#ffffff" stroke-width="19" stroke-opacity="1" stroke-miterlimit="4"/><path stroke-linecap="butt" transform="matrix(0, -0.75, 0.75, 0, 159.774325, 225.840746)" fill="none" stroke-linejoin="miter" d="M 0.00120296 9.498817 L 149.693921 9.498817 " stroke="#ffffff" stroke-width="19" stroke-opacity="1" stroke-miterlimit="4"/><path stroke-linecap="butt" transform="matrix(0.75, 0, 0, 0.75, 153.150009, 218.718442)" fill="none" stroke-linejoin="miter" d="M -0.00209512 9.500412 L 121.299996 9.500412 " stroke="#ffffff" stroke-width="19" stroke-opacity="1" stroke-miterlimit="4"/><path stroke-linecap="butt" transform="matrix(0, 0.75, -0.75, 0, 244.120769, 166.37829)" fill="none" stroke-linejoin="miter" d="M 0.000821834 9.499568 L 79.292494 9.499568 " stroke="#ffffff" stroke-width="19" stroke-opacity="1" stroke-miterlimit="4"/></svg>